<mxfile host="app.diagrams.net" modified="2023-07-02T18:19:44.815Z" agent="Mozilla/5.0 (Windows NT 10.0; Win64; x64) AppleWebKit/537.36 (KHTML, like Gecko) Chrome/114.0.0.0 Safari/537.36" etag="YvPAJlbTE-IUkl_lYFdc" version="21.3.5" type="device">
  <diagram name="Страница 1" id="65vetNuGtYS885Y6DSC8">
    <mxGraphModel dx="2333" dy="1204" grid="1" gridSize="10" guides="1" tooltips="1" connect="1" arrows="1" fold="1" page="1" pageScale="1" pageWidth="1169" pageHeight="1654" background="#FFFFFF" math="0" shadow="0">
      <root>
        <mxCell id="0" />
        <mxCell id="1" parent="0" />
        <mxCell id="Qn-GBifqpGfsqaJDxtK0-1" value="User Registration Module" style="shape=module;align=left;spacingLeft=20;align=center;verticalAlign=top;whiteSpace=wrap;html=1;" vertex="1" parent="1">
          <mxGeometry x="100" y="80" width="290" height="190" as="geometry" />
        </mxCell>
        <mxCell id="Qn-GBifqpGfsqaJDxtK0-5" value="Dispatcher" style="shape=folder;fontStyle=1;spacingTop=10;tabWidth=40;tabHeight=14;tabPosition=left;html=1;whiteSpace=wrap;" vertex="1" parent="1">
          <mxGeometry x="140" y="120" width="160" height="60" as="geometry" />
        </mxCell>
        <mxCell id="Qn-GBifqpGfsqaJDxtK0-6" value="Performer" style="shape=folder;fontStyle=1;spacingTop=10;tabWidth=40;tabHeight=14;tabPosition=left;html=1;whiteSpace=wrap;" vertex="1" parent="1">
          <mxGeometry x="140" y="190" width="160" height="60" as="geometry" />
        </mxCell>
        <mxCell id="Qn-GBifqpGfsqaJDxtK0-7" value="dispatch" style="html=1;verticalAlign=bottom;startArrow=oval;startFill=1;endArrow=block;startSize=8;edgeStyle=elbowEdgeStyle;elbow=vertical;curved=0;rounded=0;entryX=0;entryY=0;entryDx=160;entryDy=37;entryPerimeter=0;exitX=0;exitY=0;exitDx=160;exitDy=25.5;exitPerimeter=0;" edge="1" parent="1" source="Qn-GBifqpGfsqaJDxtK0-5" target="Qn-GBifqpGfsqaJDxtK0-6">
          <mxGeometry width="60" relative="1" as="geometry">
            <mxPoint x="500" y="280" as="sourcePoint" />
            <mxPoint x="560" y="280" as="targetPoint" />
            <Array as="points">
              <mxPoint x="350" y="200" />
            </Array>
          </mxGeometry>
        </mxCell>
        <mxCell id="Qn-GBifqpGfsqaJDxtK0-12" value="Find Accommodation Module" style="shape=module;align=left;spacingLeft=20;align=center;verticalAlign=top;whiteSpace=wrap;html=1;" vertex="1" parent="1">
          <mxGeometry x="100" y="300" width="290" height="190" as="geometry" />
        </mxCell>
        <mxCell id="Qn-GBifqpGfsqaJDxtK0-13" value="Dispatcher" style="shape=folder;fontStyle=1;spacingTop=10;tabWidth=40;tabHeight=14;tabPosition=left;html=1;whiteSpace=wrap;" vertex="1" parent="1">
          <mxGeometry x="140" y="340" width="160" height="60" as="geometry" />
        </mxCell>
        <mxCell id="Qn-GBifqpGfsqaJDxtK0-14" value="Performer" style="shape=folder;fontStyle=1;spacingTop=10;tabWidth=40;tabHeight=14;tabPosition=left;html=1;whiteSpace=wrap;" vertex="1" parent="1">
          <mxGeometry x="140" y="410" width="160" height="60" as="geometry" />
        </mxCell>
        <mxCell id="Qn-GBifqpGfsqaJDxtK0-15" value="dispatch" style="html=1;verticalAlign=bottom;startArrow=oval;startFill=1;endArrow=block;startSize=8;edgeStyle=elbowEdgeStyle;elbow=vertical;curved=0;rounded=0;entryX=0;entryY=0;entryDx=160;entryDy=37;entryPerimeter=0;exitX=0;exitY=0;exitDx=160;exitDy=25.5;exitPerimeter=0;" edge="1" parent="1" source="Qn-GBifqpGfsqaJDxtK0-13" target="Qn-GBifqpGfsqaJDxtK0-14">
          <mxGeometry width="60" relative="1" as="geometry">
            <mxPoint x="500" y="500" as="sourcePoint" />
            <mxPoint x="560" y="500" as="targetPoint" />
            <Array as="points">
              <mxPoint x="350" y="420" />
            </Array>
          </mxGeometry>
        </mxCell>
        <mxCell id="Qn-GBifqpGfsqaJDxtK0-16" value="Find Airlines Flight Module" style="shape=module;align=left;spacingLeft=20;align=center;verticalAlign=top;whiteSpace=wrap;html=1;" vertex="1" parent="1">
          <mxGeometry x="100" y="530" width="290" height="190" as="geometry" />
        </mxCell>
        <mxCell id="Qn-GBifqpGfsqaJDxtK0-17" value="Dispatcher" style="shape=folder;fontStyle=1;spacingTop=10;tabWidth=40;tabHeight=14;tabPosition=left;html=1;whiteSpace=wrap;" vertex="1" parent="1">
          <mxGeometry x="140" y="570" width="160" height="60" as="geometry" />
        </mxCell>
        <mxCell id="Qn-GBifqpGfsqaJDxtK0-18" value="Performer" style="shape=folder;fontStyle=1;spacingTop=10;tabWidth=40;tabHeight=14;tabPosition=left;html=1;whiteSpace=wrap;" vertex="1" parent="1">
          <mxGeometry x="140" y="640" width="160" height="60" as="geometry" />
        </mxCell>
        <mxCell id="Qn-GBifqpGfsqaJDxtK0-19" value="dispatch" style="html=1;verticalAlign=bottom;startArrow=oval;startFill=1;endArrow=block;startSize=8;edgeStyle=elbowEdgeStyle;elbow=vertical;curved=0;rounded=0;entryX=0;entryY=0;entryDx=160;entryDy=37;entryPerimeter=0;exitX=0;exitY=0;exitDx=160;exitDy=25.5;exitPerimeter=0;" edge="1" parent="1" source="Qn-GBifqpGfsqaJDxtK0-17" target="Qn-GBifqpGfsqaJDxtK0-18">
          <mxGeometry width="60" relative="1" as="geometry">
            <mxPoint x="500" y="730" as="sourcePoint" />
            <mxPoint x="560" y="730" as="targetPoint" />
            <Array as="points">
              <mxPoint x="350" y="650" />
            </Array>
          </mxGeometry>
        </mxCell>
        <mxCell id="Qn-GBifqpGfsqaJDxtK0-20" value="Find Local Buses Module" style="shape=module;align=left;spacingLeft=20;align=center;verticalAlign=top;whiteSpace=wrap;html=1;" vertex="1" parent="1">
          <mxGeometry x="100" y="750" width="290" height="190" as="geometry" />
        </mxCell>
        <mxCell id="Qn-GBifqpGfsqaJDxtK0-21" value="Dispatcher" style="shape=folder;fontStyle=1;spacingTop=10;tabWidth=40;tabHeight=14;tabPosition=left;html=1;whiteSpace=wrap;" vertex="1" parent="1">
          <mxGeometry x="140" y="790" width="160" height="60" as="geometry" />
        </mxCell>
        <mxCell id="Qn-GBifqpGfsqaJDxtK0-22" value="Performer" style="shape=folder;fontStyle=1;spacingTop=10;tabWidth=40;tabHeight=14;tabPosition=left;html=1;whiteSpace=wrap;" vertex="1" parent="1">
          <mxGeometry x="140" y="860" width="160" height="60" as="geometry" />
        </mxCell>
        <mxCell id="Qn-GBifqpGfsqaJDxtK0-23" value="dispatch" style="html=1;verticalAlign=bottom;startArrow=oval;startFill=1;endArrow=block;startSize=8;edgeStyle=elbowEdgeStyle;elbow=vertical;curved=0;rounded=0;entryX=0;entryY=0;entryDx=160;entryDy=37;entryPerimeter=0;exitX=0;exitY=0;exitDx=160;exitDy=25.5;exitPerimeter=0;" edge="1" parent="1" source="Qn-GBifqpGfsqaJDxtK0-21" target="Qn-GBifqpGfsqaJDxtK0-22">
          <mxGeometry width="60" relative="1" as="geometry">
            <mxPoint x="500" y="950" as="sourcePoint" />
            <mxPoint x="560" y="950" as="targetPoint" />
            <Array as="points">
              <mxPoint x="350" y="870" />
            </Array>
          </mxGeometry>
        </mxCell>
        <mxCell id="Qn-GBifqpGfsqaJDxtK0-24" value="Find Attractions Module" style="shape=module;align=left;spacingLeft=20;align=center;verticalAlign=top;whiteSpace=wrap;html=1;" vertex="1" parent="1">
          <mxGeometry x="100" y="980" width="290" height="190" as="geometry" />
        </mxCell>
        <mxCell id="Qn-GBifqpGfsqaJDxtK0-25" value="Dispatcher" style="shape=folder;fontStyle=1;spacingTop=10;tabWidth=40;tabHeight=14;tabPosition=left;html=1;whiteSpace=wrap;" vertex="1" parent="1">
          <mxGeometry x="140" y="1020" width="160" height="60" as="geometry" />
        </mxCell>
        <mxCell id="Qn-GBifqpGfsqaJDxtK0-26" value="Performer" style="shape=folder;fontStyle=1;spacingTop=10;tabWidth=40;tabHeight=14;tabPosition=left;html=1;whiteSpace=wrap;" vertex="1" parent="1">
          <mxGeometry x="140" y="1090" width="160" height="60" as="geometry" />
        </mxCell>
        <mxCell id="Qn-GBifqpGfsqaJDxtK0-27" value="dispatch" style="html=1;verticalAlign=bottom;startArrow=oval;startFill=1;endArrow=block;startSize=8;edgeStyle=elbowEdgeStyle;elbow=vertical;curved=0;rounded=0;entryX=0;entryY=0;entryDx=160;entryDy=37;entryPerimeter=0;exitX=0;exitY=0;exitDx=160;exitDy=25.5;exitPerimeter=0;" edge="1" parent="1" source="Qn-GBifqpGfsqaJDxtK0-25" target="Qn-GBifqpGfsqaJDxtK0-26">
          <mxGeometry width="60" relative="1" as="geometry">
            <mxPoint x="500" y="1180" as="sourcePoint" />
            <mxPoint x="560" y="1180" as="targetPoint" />
            <Array as="points">
              <mxPoint x="350" y="1100" />
            </Array>
          </mxGeometry>
        </mxCell>
        <mxCell id="Qn-GBifqpGfsqaJDxtK0-28" value="&lt;font style=&quot;font-size: 20px;&quot;&gt;Features modules :&lt;/font&gt;" style="text;strokeColor=none;fillColor=none;align=left;verticalAlign=top;spacingLeft=4;spacingRight=4;overflow=hidden;rotatable=0;points=[[0,0.5],[1,0.5]];portConstraint=eastwest;whiteSpace=wrap;html=1;" vertex="1" parent="1">
          <mxGeometry x="110" y="30" width="250" height="40" as="geometry" />
        </mxCell>
        <mxCell id="Qn-GBifqpGfsqaJDxtK0-29" value="Tables Reservation Module" style="shape=module;align=left;spacingLeft=20;align=center;verticalAlign=top;whiteSpace=wrap;html=1;" vertex="1" parent="1">
          <mxGeometry x="100" y="1210" width="290" height="190" as="geometry" />
        </mxCell>
        <mxCell id="Qn-GBifqpGfsqaJDxtK0-30" value="Dispatcher" style="shape=folder;fontStyle=1;spacingTop=10;tabWidth=40;tabHeight=14;tabPosition=left;html=1;whiteSpace=wrap;" vertex="1" parent="1">
          <mxGeometry x="140" y="1250" width="160" height="60" as="geometry" />
        </mxCell>
        <mxCell id="Qn-GBifqpGfsqaJDxtK0-31" value="Performer" style="shape=folder;fontStyle=1;spacingTop=10;tabWidth=40;tabHeight=14;tabPosition=left;html=1;whiteSpace=wrap;" vertex="1" parent="1">
          <mxGeometry x="140" y="1320" width="160" height="60" as="geometry" />
        </mxCell>
        <mxCell id="Qn-GBifqpGfsqaJDxtK0-32" value="dispatch" style="html=1;verticalAlign=bottom;startArrow=oval;startFill=1;endArrow=block;startSize=8;edgeStyle=elbowEdgeStyle;elbow=vertical;curved=0;rounded=0;entryX=0;entryY=0;entryDx=160;entryDy=37;entryPerimeter=0;exitX=0;exitY=0;exitDx=160;exitDy=25.5;exitPerimeter=0;" edge="1" parent="1" source="Qn-GBifqpGfsqaJDxtK0-30" target="Qn-GBifqpGfsqaJDxtK0-31">
          <mxGeometry width="60" relative="1" as="geometry">
            <mxPoint x="500" y="1410" as="sourcePoint" />
            <mxPoint x="560" y="1410" as="targetPoint" />
            <Array as="points">
              <mxPoint x="350" y="1330" />
            </Array>
          </mxGeometry>
        </mxCell>
        <mxCell id="Qn-GBifqpGfsqaJDxtK0-33" value="Get Excursion Module" style="shape=module;align=left;spacingLeft=20;align=center;verticalAlign=top;whiteSpace=wrap;html=1;" vertex="1" parent="1">
          <mxGeometry x="100" y="1430" width="290" height="190" as="geometry" />
        </mxCell>
        <mxCell id="Qn-GBifqpGfsqaJDxtK0-34" value="Dispatcher" style="shape=folder;fontStyle=1;spacingTop=10;tabWidth=40;tabHeight=14;tabPosition=left;html=1;whiteSpace=wrap;" vertex="1" parent="1">
          <mxGeometry x="140" y="1470" width="160" height="60" as="geometry" />
        </mxCell>
        <mxCell id="Qn-GBifqpGfsqaJDxtK0-35" value="Performer" style="shape=folder;fontStyle=1;spacingTop=10;tabWidth=40;tabHeight=14;tabPosition=left;html=1;whiteSpace=wrap;" vertex="1" parent="1">
          <mxGeometry x="140" y="1540" width="160" height="60" as="geometry" />
        </mxCell>
        <mxCell id="Qn-GBifqpGfsqaJDxtK0-36" value="dispatch" style="html=1;verticalAlign=bottom;startArrow=oval;startFill=1;endArrow=block;startSize=8;edgeStyle=elbowEdgeStyle;elbow=vertical;curved=0;rounded=0;entryX=0;entryY=0;entryDx=160;entryDy=37;entryPerimeter=0;exitX=0;exitY=0;exitDx=160;exitDy=25.5;exitPerimeter=0;" edge="1" parent="1" source="Qn-GBifqpGfsqaJDxtK0-34" target="Qn-GBifqpGfsqaJDxtK0-35">
          <mxGeometry width="60" relative="1" as="geometry">
            <mxPoint x="500" y="1630" as="sourcePoint" />
            <mxPoint x="560" y="1630" as="targetPoint" />
            <Array as="points">
              <mxPoint x="350" y="1550" />
            </Array>
          </mxGeometry>
        </mxCell>
        <mxCell id="Qn-GBifqpGfsqaJDxtK0-37" value="Database Module" style="shape=module;align=left;spacingLeft=20;align=center;verticalAlign=top;whiteSpace=wrap;html=1;" vertex="1" parent="1">
          <mxGeometry x="585" y="370" width="290" height="190" as="geometry" />
        </mxCell>
        <mxCell id="Qn-GBifqpGfsqaJDxtK0-38" value="Tables" style="shape=folder;fontStyle=1;spacingTop=10;tabWidth=40;tabHeight=14;tabPosition=left;html=1;whiteSpace=wrap;" vertex="1" parent="1">
          <mxGeometry x="625" y="410" width="160" height="60" as="geometry" />
        </mxCell>
        <mxCell id="Qn-GBifqpGfsqaJDxtK0-39" value="DAO" style="shape=folder;fontStyle=1;spacingTop=10;tabWidth=40;tabHeight=14;tabPosition=left;html=1;whiteSpace=wrap;" vertex="1" parent="1">
          <mxGeometry x="625" y="480" width="160" height="60" as="geometry" />
        </mxCell>
        <mxCell id="Qn-GBifqpGfsqaJDxtK0-41" value="Core Module" style="shape=module;align=left;spacingLeft=20;align=center;verticalAlign=top;whiteSpace=wrap;html=1;" vertex="1" parent="1">
          <mxGeometry x="585" y="630" width="290" height="190" as="geometry" />
        </mxCell>
        <mxCell id="Qn-GBifqpGfsqaJDxtK0-42" value="Data" style="shape=folder;fontStyle=1;spacingTop=10;tabWidth=40;tabHeight=14;tabPosition=left;html=1;whiteSpace=wrap;" vertex="1" parent="1">
          <mxGeometry x="625" y="670" width="160" height="60" as="geometry" />
        </mxCell>
        <mxCell id="Qn-GBifqpGfsqaJDxtK0-43" value="UI" style="shape=folder;fontStyle=1;spacingTop=10;tabWidth=40;tabHeight=14;tabPosition=left;html=1;whiteSpace=wrap;" vertex="1" parent="1">
          <mxGeometry x="625" y="740" width="135" height="60" as="geometry" />
        </mxCell>
        <mxCell id="Qn-GBifqpGfsqaJDxtK0-44" value="Data Analytics Module" style="shape=module;align=left;spacingLeft=20;align=center;verticalAlign=top;whiteSpace=wrap;html=1;" vertex="1" parent="1">
          <mxGeometry x="585" y="870" width="290" height="190" as="geometry" />
        </mxCell>
        <mxCell id="Qn-GBifqpGfsqaJDxtK0-45" value="Machine Learning" style="shape=folder;fontStyle=1;spacingTop=10;tabWidth=40;tabHeight=14;tabPosition=left;html=1;whiteSpace=wrap;" vertex="1" parent="1">
          <mxGeometry x="625" y="910" width="160" height="60" as="geometry" />
        </mxCell>
        <mxCell id="Qn-GBifqpGfsqaJDxtK0-46" value="Calculations" style="shape=folder;fontStyle=1;spacingTop=10;tabWidth=40;tabHeight=14;tabPosition=left;html=1;whiteSpace=wrap;" vertex="1" parent="1">
          <mxGeometry x="625" y="980" width="135" height="60" as="geometry" />
        </mxCell>
        <mxCell id="Qn-GBifqpGfsqaJDxtK0-47" value="1" style="endArrow=open;html=1;endSize=12;startArrow=diamondThin;startSize=14;startFill=0;edgeStyle=orthogonalEdgeStyle;align=left;verticalAlign=bottom;rounded=0;exitX=1.024;exitY=0.444;exitDx=0;exitDy=0;exitPerimeter=0;entryX=1;entryY=0.5;entryDx=0;entryDy=0;" edge="1" parent="1" source="Qn-GBifqpGfsqaJDxtK0-41" target="Qn-GBifqpGfsqaJDxtK0-44">
          <mxGeometry x="-1" y="3" relative="1" as="geometry">
            <mxPoint x="960" y="960" as="sourcePoint" />
            <mxPoint x="1120" y="960" as="targetPoint" />
            <Array as="points">
              <mxPoint x="1020" y="714" />
              <mxPoint x="1020" y="965" />
            </Array>
          </mxGeometry>
        </mxCell>
        <mxCell id="Qn-GBifqpGfsqaJDxtK0-51" value="1" style="endArrow=open;html=1;endSize=12;startArrow=diamondThin;startSize=14;startFill=0;edgeStyle=orthogonalEdgeStyle;align=left;verticalAlign=bottom;rounded=0;entryX=0.5;entryY=1;entryDx=0;entryDy=0;" edge="1" parent="1" source="Qn-GBifqpGfsqaJDxtK0-41" target="Qn-GBifqpGfsqaJDxtK0-37">
          <mxGeometry x="-1" y="3" relative="1" as="geometry">
            <mxPoint x="875" y="725" as="sourcePoint" />
            <mxPoint x="1035" y="725" as="targetPoint" />
            <Array as="points">
              <mxPoint x="730" y="595" />
              <mxPoint x="730" y="595" />
            </Array>
          </mxGeometry>
        </mxCell>
        <mxCell id="Qn-GBifqpGfsqaJDxtK0-60" value="Use" style="endArrow=open;endSize=12;dashed=1;html=1;rounded=0;exitX=1;exitY=0.5;exitDx=0;exitDy=0;entryX=0;entryY=0.5;entryDx=10;entryDy=0;entryPerimeter=0;" edge="1" parent="1" source="Qn-GBifqpGfsqaJDxtK0-20" target="Qn-GBifqpGfsqaJDxtK0-41">
          <mxGeometry x="-0.0015" width="160" relative="1" as="geometry">
            <mxPoint x="605" y="730" as="sourcePoint" />
            <mxPoint x="480" y="960" as="targetPoint" />
            <Array as="points" />
            <mxPoint as="offset" />
          </mxGeometry>
        </mxCell>
        <mxCell id="Qn-GBifqpGfsqaJDxtK0-68" value="Use" style="endArrow=open;endSize=12;dashed=1;html=1;rounded=0;exitX=1;exitY=0.5;exitDx=0;exitDy=0;entryX=0;entryY=0.5;entryDx=10;entryDy=0;entryPerimeter=0;" edge="1" parent="1" source="Qn-GBifqpGfsqaJDxtK0-16" target="Qn-GBifqpGfsqaJDxtK0-41">
          <mxGeometry x="-0.0015" width="160" relative="1" as="geometry">
            <mxPoint x="380" y="670" as="sourcePoint" />
            <mxPoint x="585" y="550" as="targetPoint" />
            <Array as="points" />
            <mxPoint as="offset" />
          </mxGeometry>
        </mxCell>
        <mxCell id="Qn-GBifqpGfsqaJDxtK0-69" value="Use" style="endArrow=open;endSize=12;dashed=1;html=1;rounded=0;exitX=1;exitY=0.5;exitDx=0;exitDy=0;entryX=0;entryY=0.5;entryDx=10;entryDy=0;entryPerimeter=0;" edge="1" parent="1" source="Qn-GBifqpGfsqaJDxtK0-12" target="Qn-GBifqpGfsqaJDxtK0-41">
          <mxGeometry x="-0.0015" width="160" relative="1" as="geometry">
            <mxPoint x="390" y="440" as="sourcePoint" />
            <mxPoint x="595" y="730" as="targetPoint" />
            <Array as="points" />
            <mxPoint as="offset" />
          </mxGeometry>
        </mxCell>
        <mxCell id="Qn-GBifqpGfsqaJDxtK0-70" value="Use" style="endArrow=open;endSize=12;dashed=1;html=1;rounded=0;exitX=1;exitY=0.5;exitDx=0;exitDy=0;entryX=0.026;entryY=0.492;entryDx=0;entryDy=0;entryPerimeter=0;" edge="1" parent="1" source="Qn-GBifqpGfsqaJDxtK0-1" target="Qn-GBifqpGfsqaJDxtK0-41">
          <mxGeometry x="-0.0015" width="160" relative="1" as="geometry">
            <mxPoint x="410" y="190" as="sourcePoint" />
            <mxPoint x="590" y="730" as="targetPoint" />
            <Array as="points" />
            <mxPoint as="offset" />
          </mxGeometry>
        </mxCell>
        <mxCell id="Qn-GBifqpGfsqaJDxtK0-71" value="Use" style="endArrow=open;endSize=12;dashed=1;html=1;rounded=0;entryX=0;entryY=0.5;entryDx=10;entryDy=0;entryPerimeter=0;exitX=1;exitY=0.5;exitDx=0;exitDy=0;" edge="1" parent="1" source="Qn-GBifqpGfsqaJDxtK0-24" target="Qn-GBifqpGfsqaJDxtK0-41">
          <mxGeometry x="-0.0015" width="160" relative="1" as="geometry">
            <mxPoint x="400" y="1080.7618350074404" as="sourcePoint" />
            <mxPoint x="605" y="735" as="targetPoint" />
            <Array as="points" />
            <mxPoint as="offset" />
          </mxGeometry>
        </mxCell>
        <mxCell id="Qn-GBifqpGfsqaJDxtK0-72" value="Use" style="endArrow=open;endSize=12;dashed=1;html=1;rounded=0;exitX=1;exitY=0.5;exitDx=0;exitDy=0;entryX=0;entryY=0.5;entryDx=10;entryDy=0;entryPerimeter=0;" edge="1" parent="1" source="Qn-GBifqpGfsqaJDxtK0-29" target="Qn-GBifqpGfsqaJDxtK0-41">
          <mxGeometry x="-0.0015" width="160" relative="1" as="geometry">
            <mxPoint x="480" y="1205.7618350074404" as="sourcePoint" />
            <mxPoint x="590" y="730" as="targetPoint" />
            <Array as="points" />
            <mxPoint as="offset" />
          </mxGeometry>
        </mxCell>
        <mxCell id="Qn-GBifqpGfsqaJDxtK0-73" value="Use" style="endArrow=open;endSize=12;dashed=1;html=1;rounded=0;exitX=1;exitY=0.5;exitDx=0;exitDy=0;entryX=0;entryY=0.5;entryDx=10;entryDy=0;entryPerimeter=0;" edge="1" parent="1">
          <mxGeometry x="-0.0015" width="160" relative="1" as="geometry">
            <mxPoint x="400" y="1315" as="sourcePoint" />
            <mxPoint x="605" y="735" as="targetPoint" />
            <Array as="points" />
            <mxPoint as="offset" />
          </mxGeometry>
        </mxCell>
      </root>
    </mxGraphModel>
  </diagram>
</mxfile>
